<svg xmlns="http://www.w3.org/2000/svg" xmlns:se="http://svg-edit.googlecode.com"
    xmlns:xlink="http://www.w3.org/1999/xlink" xmlns:dc="http://purl.org/dc/elements/1.1/"
    xmlns:cc="http://creativecommons.org/ns#" xmlns:rdf="http://www.w3.org/1999/02/22-rdf-syntax-ns#"
    xmlns:inkscape="http://www.inkscape.org/namespaces/inkscape" width="256" height="256" style="">
    <rect id="backgroundrect" width="100%" height="100%" x="0" y="0" fill="none" stroke="none" class="" style="" />
    <title>TimeLock Logo</title>









    <g class="currentLayer" style="">
        <title>Layer 1</title>
        <path fill="#ffffff" fill-opacity="1" stroke="none" stroke-opacity="1" stroke-width="33" stroke-dasharray="none"
            stroke-linejoin="round" stroke-linecap="butt" stroke-dashoffset="" fill-rule="nonzero" opacity="1"
            marker-start="" marker-mid="" marker-end=""
            d="M0.000006172939170601141,127.7857033574342 C0.000006172939170601141,57.185860174213 57.185878149990536,-0.00001280419616713293 127.78572009696754,-0.00001280419616713293 C198.3855620439445,-0.00001280419616713293 255.5714340209959,57.185860174213 255.5714340209959,127.7857033574342 C255.5714340209959,198.38554654065538 198.3855620439445,255.5714195190646 127.78572009696754,255.5714195190646 C57.185878149990536,255.5714195190646 0.000006172939170601141,198.38554654065538 0.000006172939170601141,127.7857033574342 z"
            id="svg_10" class="selected" />
        <path fill="#01015e" stroke="#01015e" stroke-linejoin="round" stroke-dashoffset="" fill-rule="nonzero"
            marker-start="" marker-mid="" marker-end="" id="svg_6"
            d="M73.18132029145166,129.9030645028758 L73.18132029145166,59.303247079147724 L73.18132029145166,59.303247079147724 C73.18132029145166,28.57156184764257 98.09890291159097,5.3151514021792075 128.00000205575813,5.3151514021792075 L128.00000205575813,5.3151514021792075 L128.00000205575813,5.3151514021792075 C142.95055162784172,5.3151514021792075 156.23992902524935,10.298667926207067 167.03754816064307,21.096287061600773 C177.0045812086988,31.0633201096565 182.81868382006462,44.352697507064136 182.81868382006462,59.303247079147724 L182.81868382006462,129.9030645028758 L151.2564125012215,129.9030645028758 L151.2564125012215,59.303247079147724 C151.2564125012215,46.84445576907807 141.28937945316576,36.046836633684364 128.00000205575813,36.046836633684364 L128.00000205575813,36.046836633684364 L128.00000205575813,36.046836633684364 C115.54121074568849,36.046836633684364 104.74359161029479,46.84445576907807 104.74359161029479,59.303247079147724 L104.74359161029479,129.9030645028758 L73.18132029145166,129.9030645028758 z"
            style="color: rgb(1, 1, 94);" class="" />
        <path fill="#add8f7" fill-opacity="1" stroke="#000099" stroke-opacity="1" stroke-width="33"
            stroke-dasharray="none" stroke-linejoin="round" stroke-linecap="butt" stroke-dashoffset=""
            fill-rule="nonzero" opacity="1" marker-start="" marker-mid="" marker-end=""
            d="M63.21428724339593,169.3542624708664 C63.21428724339593,133.63906071533336 92.28480030022513,104.56854765850417 128.00000205575813,104.56854765850417 C163.71520381129116,104.56854765850417 192.78571686812035,133.63906071533336 192.78571686812035,169.3542624708664 C192.78571686812035,205.90005031373738 163.71520381129116,234.9705633705666 128.00000205575813,234.9705633705666 C92.28480030022513,234.9705633705666 63.21428724339593,205.90005031373738 63.21428724339593,169.3542624708664 z"
            class="" filter="" id="svg_3" />
        <path fill="#add8f7" fill-opacity="1" stroke="#000099" stroke-opacity="1" stroke-width="33"
            stroke-dasharray="none" stroke-linejoin="round" stroke-linecap="butt" stroke-dashoffset=""
            fill-rule="nonzero" opacity="1" marker-start="" marker-mid="" marker-end=""
            d="M63.21428724339593,169.3542624708664 C63.21428724339593,133.63906071533336 92.28480030022513,104.56854765850417 128.00000205575813,104.56854765850417 C163.71520381129116,104.56854765850417 192.78571686812035,133.63906071533336 192.78571686812035,169.3542624708664 C192.78571686812035,205.90005031373738 163.71520381129116,234.9705633705666 128.00000205575813,234.9705633705666 C92.28480030022513,234.9705633705666 63.21428724339593,205.90005031373738 63.21428724339593,169.3542624708664 z"
            class="" filter="" id="svg_8" />
        <rect fill="#01015e" stroke="#01015e" stroke-width="1" stroke-linejoin="round" stroke-dashoffset=""
            fill-rule="nonzero" id="svg_2" x="102.92330169677734" y="192.90826416015625" width="10" height="33"
            style="color: rgb(173, 216, 247);" class="" stroke-opacity="1" fill-opacity="1" rx="4" ry="4"
            transform="matrix(0.4401435682844773,-0.7043769500609866,0.7043769500609866,0.4401435682844773,-81.60246946141882,144.28687211794875) " />
        <rect fill="#01015e" stroke="#01015e" stroke-width="1" stroke-linejoin="round" stroke-dashoffset=""
            fill-rule="nonzero" x="139.162109375" y="94.51812744140625" width="10" height="52"
            style="color: rgb(173, 216, 247);" class="" stroke-opacity="1" fill-opacity="1" rx="4" ry="4"
            transform="matrix(0.5557705722536922,0.6172457529187326,-0.6172457529187326,0.5557705722536922,138.0493783761352,-0.7295872753267076) "
            id="svg_4" />
        <rect fill="#000099" stroke="#000099" stroke-width="4" stroke-linejoin="round" stroke-dashoffset=""
            fill-rule="nonzero" id="svg_5" x="124.67765808105469" y="148.58961486816406" width="4.15293025970459"
            height="0" style="color: rgb(173, 216, 247);" class="" />
        <path fill="#add8f7" fill-opacity="1" stroke="#000099" stroke-opacity="1" stroke-width="4"
            stroke-dasharray="none" stroke-linejoin="round" stroke-linecap="butt" stroke-dashoffset=""
            fill-rule="nonzero" opacity="1" marker-start="" marker-mid="" marker-end=""
            d="M120.52472726971635,169.3542624708664 C120.52472726971635,165.20133203417652 123.84707161906826,161.8789876848246 128.00000205575813,161.8789876848246 C132.15293249244803,161.8789876848246 135.47527684179994,165.20133203417652 135.47527684179994,169.3542624708664 C135.47527684179994,172.6766068202183 132.15293249244803,175.9989511695702 128.00000205575813,175.9989511695702 C123.84707161906826,175.9989511695702 120.52472726971635,172.6766068202183 120.52472726971635,169.3542624708664 z"
            id="svg_1" class="" />
        <path fill="#add8f7" fill-opacity="1" stroke="#000099" stroke-opacity="1" stroke-width="4"
            stroke-dasharray="none" stroke-linejoin="round" stroke-linecap="butt" stroke-dashoffset=""
            fill-rule="nonzero" opacity="1" marker-start="" marker-mid="" marker-end=""
            d="M120.52472726971635,170.18484855820438 C120.52472726971635,166.03191812151448 123.84707161906826,162.70957377216257 128.00000205575813,162.70957377216257 C132.15293249244803,162.70957377216257 135.47527684179994,166.03191812151448 135.47527684179994,170.18484855820438 C135.47527684179994,173.5071929075563 132.15293249244803,176.82953725690822 128.00000205575813,176.82953725690822 C123.84707161906826,176.82953725690822 120.52472726971635,173.5071929075563 120.52472726971635,170.18484855820438 z"
            class="" id="svg_7" />
    </g>
</svg>